<?xml version="1.0" encoding="utf-8"?>
<!-- Generator: Adobe Illustrator 27.6.1, SVG Export Plug-In . SVG Version: 6.00 Build 0)  -->
<svg version="1.1" id="Layer_1" xmlns="http://www.w3.org/2000/svg" xmlns:xlink="http://www.w3.org/1999/xlink" x="0px" y="0px"
	 viewBox="0 0 841.89 595.28" style="enable-background:new 0 0 841.89 595.28;" xml:space="preserve">
<style type="text/css">
	.st0{fill:url(#SVGID_1_);}
	.st1{fill:url(#SVGID_00000097463675369648371800000016890414706159030431_);}
	.st2{fill:#F7F7F7;}
</style>
<g>
	<g>
		<g>
			<linearGradient id="SVGID_1_" gradientUnits="userSpaceOnUse" x1="746.3793" y1="190.5794" x2="572.8793" y2="364.0795">
				<stop  offset="0" style="stop-color:#1EFFFF"/>
				<stop  offset="1" style="stop-color:#D1FF12"/>
			</linearGradient>
			<path class="st0" d="M706.57,291.63c16.44-18.85,12.03-47.2-8.63-62.34c-19.83-14.53-47.94-9.75-61.76,10.5
				c-14.41,21.12-8.81,48.64,12.83,61.74c4.93-5.15,9.92-10.35,15.14-15.81c-2.39-2.53-4.99-5.01-7.28-7.76
				c-7.02-8.42-6.59-19.55,0.92-27.09c7.68-7.72,19.83-8.09,27.93-0.86c7.97,7.12,9.76,18.89,2.17,26.84
				c-19.64,20.56-39.96,40.48-60.35,60.31c-4.82,4.69-11.19,4.51-16.72,0.46c-5.67-4.15-7.88-9.87-5.8-16.79
				c0.65-2.17,1.9-4.16,2.48-5.37c-5.85-5.53-11-10.41-16.12-15.25c-14.09,14.94-14.06,36.51,0.49,51.67
				c14.38,14.98,36.77,15.92,52.24,1.8c9.16-8.36,17.85-17.25,26.66-25.99C682.79,315.76,695.46,304.37,706.57,291.63z"/>
			
				<linearGradient id="SVGID_00000117662130731980229160000005462762143134925237_" gradientUnits="userSpaceOnUse" x1="807.24" y1="251.4401" x2="633.74" y2="424.9402">
				<stop  offset="0" style="stop-color:#1EFFFF"/>
				<stop  offset="1" style="stop-color:#D1FF12"/>
			</linearGradient>
			<path style="fill:url(#SVGID_00000117662130731980229160000005462762143134925237_);" d="M753.19,300.11
				c-5.61,4.9-11.21,9.79-16.51,14.42c5.45,10.96,4.61,17.59-2.22,22.82c-6.7,5.13-13.51,4.09-21.41-4.11
				c-5.39-5.59-10.1-11.83-14.59-17.16c-7.68,6.85-13.05,11.63-19.1,17.02c8.71,8.26,16.22,16.6,24.93,23.4
				c15.42,12.04,37.59,8.78,50.37-6.48C767.73,334.41,766.83,313.24,753.19,300.11z"/>
		</g>
		<g>
			<path class="st2" d="M105.04,293.98c-24.18,0-32.63-10.05-32.63-26.31c0-4.8,0.98-10.31,2.31-13.96l12.53-2.04
				c-1.87,4.09-3.02,9.96-3.02,14.67c0,12.53,5.42,18.4,22.05,18.4h6.04v-32c0,0,8.27-1.69,17.87-1.69
				c15.65,0,20.54,7.47,20.54,19.65v11.2h-11.38v-9.96c0-8.53-2.49-11.65-9.87-11.65c-2.93,0-5.87,0.53-5.87,0.53v33.16H105.04z
				 M95.44,313.36c-3.29,0-5.87-2.67-5.87-6.04c0-3.29,2.58-6.04,5.87-6.04c3.38,0,5.96,2.67,5.96,6.04
				C101.4,310.61,98.82,313.36,95.44,313.36z M110.2,313.36c-3.29,0-5.87-2.67-5.87-6.04c0-3.29,2.58-6.04,5.87-6.04
				c3.29,0,5.87,2.67,5.87,6.04C116.07,310.61,113.49,313.36,110.2,313.36z"/>
			<path class="st2" d="M156.08,315.68l0.98-9.33c2.04,0.62,4.36,1.07,7.2,1.07c5.96,0,9.51-2.84,9.51-12.45V252.2h11.73v32.54h8.8
				v9.25h-8.8v0.36c0,11.38-3.82,22.22-21.96,22.22C160.79,316.56,158.3,316.21,156.08,315.68z"/>
			<path class="st2" d="M192.97,284.74h34.4c0.27-2.13,0.44-4.53,0.44-6.76c0-11.29-4.62-17.07-17.42-17.07
				c-3.64,0-6.93,0.27-10.22,0.71v-9.16c3.47-0.44,7.56-0.8,11.38-0.8c20,0,27.91,8.8,27.91,25.87c0,2.13-0.09,4.62-0.36,7.2h6.93
				v9.25h-53.07V284.74z M207.91,307.32c0-3.38,2.76-6.13,6.13-6.13c3.38,0,6.13,2.67,6.13,6.13c0,3.38-2.76,6.13-6.13,6.13
				C210.66,313.45,207.91,310.79,207.91,307.32z"/>
			<path class="st2" d="M244.71,284.74h12.45V252.2h11.73v32.54h7.91v9.25h-32.09V284.74z M248.09,239.4c0-3.29,2.58-6.05,5.87-6.05
				c3.38,0,5.96,2.67,5.96,6.05c0,3.29-2.58,6.04-5.96,6.04C250.67,245.45,248.09,242.78,248.09,239.4z M262.85,239.4
				c0-3.29,2.58-6.05,5.87-6.05s5.87,2.67,5.87,6.05c0,3.29-2.58,6.04-5.87,6.04S262.85,242.78,262.85,239.4z"/>
			<path class="st2" d="M306.85,293.98c-10.49,0-15.65-2.49-18.31-6.85c-2.22,4.62-6.4,6.85-11.73,6.85h-1.33v-9.25h1.78
				c4.27,0,6.67-2.58,6.67-10.67c0-12.71,7.73-23.02,22.67-23.02c14.31,0,20.54,8.18,20.54,21.16v21.78H306.85z M315.66,273.54
				c0-9.33-3.38-13.25-9.87-13.25c-6.49,0-10.31,5.16-10.31,12.71c0,7.82,3.38,11.73,12.53,11.73h7.65V273.54z"/>
			<path class="st2" d="M382.16,293.98c-17.33,0-23.82-8-23.82-20.62c0-11.65,7.2-22.31,23.56-22.31c10.49,0,18.58,3.11,18.58,3.11
				v30.58h8.71v9.25H382.16z M367.49,239.4c0-3.29,2.58-6.05,5.87-6.05c3.38,0,5.96,2.67,5.96,6.05c0,3.29-2.58,6.04-5.96,6.04
				C370.07,245.45,367.49,242.78,367.49,239.4z M389.09,261.89c0,0-3.38-1.6-8.45-1.6c-6.67,0-10.58,5.07-10.58,12
				c0,8.09,4,12.45,13.33,12.45h5.69V261.89z M382.25,239.4c0-3.29,2.58-6.05,5.87-6.05c3.29,0,5.87,2.67,5.87,6.05
				c0,3.29-2.58,6.04-5.87,6.04C384.82,245.45,382.25,242.78,382.25,239.4z"/>
			<path class="st2" d="M470.08,284.74h8.18v9.25h-70.41v-9.25h10.85V252.2h11.73v2.22c0,3.91-0.27,8.89-0.98,13.16h0.09
				c4.36-10.49,13.33-16.53,22.85-16.53c12.27,0,18.05,8.18,18.05,21.51C470.44,276.56,470.35,280.74,470.08,284.74z M449.99,260.47
				c-9.51,0-17.42,11.82-19.65,24.27h27.65c0.27-3.56,0.44-7.65,0.44-10.85C458.43,265.54,456.3,260.47,449.99,260.47z"/>
			<path class="st2" d="M476.93,284.74h12.45V252.2h11.73v32.54h8.71v9.25h-32.89V284.74z M489.11,238.6c0-3.38,2.76-6.13,6.13-6.13
				c3.38,0,6.13,2.76,6.13,6.13s-2.76,6.13-6.13,6.13C491.86,244.73,489.11,242.07,489.11,238.6z"/>
			<path class="st2" d="M539.87,293.98c-10.49,0-15.65-2.49-18.31-6.85c-2.22,4.62-6.4,6.85-11.74,6.85h-1.33v-9.25h1.78
				c4.27,0,6.67-2.58,6.67-10.67c0-12.71,7.73-23.02,22.67-23.02c14.31,0,20.54,8.18,20.54,21.16v21.78H539.87z M548.67,273.54
				c0-9.33-3.38-13.25-9.87-13.25c-6.49,0-10.31,5.16-10.31,12.71c0,7.82,3.38,11.73,12.53,11.73h7.65V273.54z"/>
		</g>
		<g>
			<path class="st2" d="M114.59,363.85l-0.05-24.27l-12.04,20.23h-2.19l-12.04-20.08v24.13H83.7v-33.31h3.9l13.9,23.42l13.71-23.42
				h3.9l0.05,33.31H114.59z"/>
			<path class="st2" d="M150.37,355.53h-17.7l-3.66,8.33h-4.9l15.09-33.31h4.71l15.13,33.31h-5L150.37,355.53z M148.71,351.72
				l-7.19-16.32l-7.19,16.32H148.71z"/>
			<path class="st2" d="M170.6,334.68h-11.42v-4.14h27.56v4.14h-11.42v29.17h-4.71V334.68z"/>
			<path class="st2" d="M186.49,359.43l2.76-3.24c1.81,2.57,4.14,3.95,6.95,3.95c3.76,0,5.71-2.29,5.71-6.76v-18.7h-12.04v-4.14
				h16.75v22.61c0,7.42-3.62,11.09-10.42,11.09C192.25,364.24,188.63,362.52,186.49,359.43z"/>
			<path class="st2" d="M238.6,363.85l-7.19-10.23c-0.67,0.05-1.38,0.1-2.09,0.1h-8.23v10.14h-4.76v-33.31h12.99
				c8.66,0,13.9,4.38,13.9,11.61c0,5.14-2.67,8.85-7.33,10.52l7.9,11.18H238.6z M238.46,342.15c0-4.76-3.19-7.47-9.28-7.47h-8.09
				v14.99h8.09C235.27,349.67,238.46,346.91,238.46,342.15z"/>
			<path class="st2" d="M275.1,359.71v4.14h-24.18v-33.31h23.51v4.14h-18.75v10.23h16.71v4.04h-16.71v10.76H275.1z"/>
			<path class="st2" d="M322.5,342.15c0,7.23-5.24,11.61-13.9,11.61h-8.23v10.09h-4.76v-33.31h12.99
				C317.27,330.54,322.5,334.92,322.5,342.15z M317.74,342.15c0-4.76-3.19-7.47-9.28-7.47h-8.09v14.94h8.09
				C314.55,349.62,317.74,346.91,317.74,342.15z"/>
			<path class="st2" d="M329.97,330.54h4.76v29.17h18.04v4.14h-22.8V330.54z"/>
			<path class="st2" d="M379.46,355.53h-17.7l-3.66,8.33h-4.9l15.09-33.31h4.71l15.13,33.31h-5L379.46,355.53z M377.8,351.72
				l-7.19-16.32l-7.19,16.32H377.8z"/>
			<path class="st2" d="M399.69,334.68h-11.42v-4.14h27.56v4.14H404.4v29.17h-4.71V334.68z"/>
			<path class="st2" d="M425.77,334.68v11.61h16.7v4.09h-16.7v13.47h-4.76v-33.31h23.51v4.14H425.77z"/>
			<path class="st2" d="M448.51,347.2c0-9.76,7.52-17.04,17.75-17.04c10.14,0,17.66,7.23,17.66,17.04s-7.52,17.04-17.66,17.04
				C456.03,364.24,448.51,356.95,448.51,347.2z M479.16,347.2c0-7.38-5.52-12.8-12.9-12.8c-7.47,0-12.99,5.43-12.99,12.8
				s5.52,12.8,12.99,12.8C473.64,360,479.16,354.57,479.16,347.2z"/>
			<path class="st2" d="M513.47,363.85l-7.19-10.23c-0.67,0.05-1.38,0.1-2.09,0.1h-8.23v10.14h-4.76v-33.31h12.99
				c8.66,0,13.9,4.38,13.9,11.61c0,5.14-2.67,8.85-7.33,10.52l7.9,11.18H513.47z M513.33,342.15c0-4.76-3.19-7.47-9.28-7.47h-8.09
				v14.99h8.09C510.14,349.67,513.33,346.91,513.33,342.15z"/>
			<path class="st2" d="M556.69,363.85l-0.05-24.27l-12.04,20.23h-2.19l-12.04-20.08v24.13h-4.57v-33.31h3.9l13.9,23.42l13.71-23.42
				h3.9l0.05,33.31H556.69z"/>
		</g>
	</g>
</g>
</svg>
